# xmcd
#
# Track frame offsets:
#	150
#	26417
#	46559
#	72169
#	103584
#	130264
#	151954
#	175549
#	193876
#	219336
#	242439
#	264956
#	290256
#	313233
#
# Disc length: 4453 seconds
#
# Revision: 0
# Processed by: cddbd v1.5.1PL0 Copyright (c) Steve Scherf et al.
# Submitted via: dBpowerAMP V4.0
#
DISCID=b611630e
DTITLE=George Benson - Star Profile
DYEAR=1900
DGENRE=Blues
TTITLE0=Love For Sale
TTITLE1=All Blues
TTITLE2=Breezin'
TTITLE3=Affirmation
TTITLE4=Lady
TTITLE5=Got To Be There
TTITLE6=My Heart Is Dancing
TTITLE7=Kiss and Make Up
TTITLE8=Somewhere Island
TTITLE9=Lost In Love
TTITLE10=That's Right
TTITLE11=The Thinker
TTITLE12=True Blue
TTITLE13=Summer Love
EXTD=
EXTT0=
EXTT1=
EXTT2=
EXTT3=
EXTT4=
EXTT5=
EXTT6=
EXTT7=
EXTT8=
EXTT9=
EXTT10=
EXTT11=
EXTT12=
EXTT13=
PLAYORDER=
